<svg width="168" height="27" viewBox="0 0 168 27" fill="none" xmlns="http://www.w3.org/2000/svg">
<path d="M11.1479 26.3148C9.29342 26.3148 7.66197 25.9512 6.25352 25.224C4.86854 24.4734 3.78873 23.4765 3.01408 22.2333C2.23943 20.9901 1.66432 19.653 1.28873 18.2222C0.936616 16.7913 0.760559 15.2666 0.760559 13.6481C0.760559 12.1703 0.948353 10.7277 1.32394 9.32032C1.69953 7.88945 2.27464 6.54069 3.04929 5.27402C3.82394 3.9839 4.90375 2.9518 6.28873 2.17772C7.69718 1.38019 9.3169 0.981427 11.1479 0.981427C13.3779 0.981427 15.2793 1.55612 16.8521 2.7055C18.4249 3.85488 19.5399 5.25056 20.1972 6.89254L15.4084 9.03884C14.7277 8.03019 14.0704 7.2913 13.4366 6.82217C12.8263 6.35303 12.0634 6.11847 11.1479 6.11847C10.2793 6.11847 9.51643 6.35303 8.85915 6.82217C8.20187 7.26785 7.69718 7.87772 7.34507 8.6518C6.99295 9.40242 6.73474 10.1999 6.57042 11.0444C6.4061 11.8654 6.32394 12.7333 6.32394 13.6481C6.32394 14.8913 6.47652 16.0641 6.78169 17.1666C7.11033 18.2691 7.65023 19.2191 8.40141 20.0166C9.17605 20.7907 10.0915 21.1777 11.1479 21.1777C12.6737 21.1777 14.0704 20.1222 15.338 18.0111L20.2324 19.8407C18.2371 24.1567 15.2089 26.3148 11.1479 26.3148Z" fill="black"/>
<path d="M34.1678 25.9629V24.6259C33.088 25.7987 31.5974 26.3851 29.696 26.3851C27.7007 26.3851 26.0692 25.8808 24.8016 24.8722C23.5575 23.8401 22.9354 22.374 22.9354 20.474C22.9354 18.6209 23.6631 17.2018 25.1185 16.2166C26.5739 15.208 28.2758 14.7037 30.2241 14.7037C31.9143 14.7037 33.2288 14.9148 34.1678 15.337V14.3518C34.1678 13.5308 33.9096 12.9092 33.3932 12.487C32.8767 12.0413 32.1608 11.8185 31.2453 11.8185C29.2969 11.8185 27.372 12.4518 25.4706 13.7185L23.8861 9.81291C26.0927 8.31168 28.6631 7.56106 31.5974 7.56106C36.6913 7.56106 39.2382 9.90674 39.2382 14.5981V25.9629H34.1678ZM30.6819 22.0925C31.9495 22.0925 33.1115 21.6703 34.1678 20.8259V19.2074C33.2288 18.9259 32.2077 18.7851 31.1044 18.7851C28.9917 18.7851 27.9354 19.3598 27.9354 20.5092C27.9354 21.5648 28.8509 22.0925 30.6819 22.0925Z" fill="black"/>
<path d="M44.1763 25.9629V7.98328H49.282V9.6018C49.5167 9.13266 49.9392 8.67526 50.5496 8.22958C51.1599 7.7839 51.8759 7.56106 52.6975 7.56106C54.1059 7.56106 55.2914 8.06538 56.2538 9.07402L55.5848 13.7185C54.5989 12.8975 53.5308 12.487 52.3806 12.487C50.3148 12.487 49.282 13.7302 49.282 16.2166V25.9629H44.1763Z" fill="black"/>
<path d="M59.3406 1.33328H68.4251C70.4908 1.33328 72.3218 1.68513 73.918 2.38884C75.5143 3.06908 76.7701 4.00735 77.6856 5.20365C78.6246 6.37649 79.3171 7.67834 79.7631 9.10921C80.2326 10.5401 80.4673 12.053 80.4673 13.6481C80.4673 14.8209 80.3382 15.9703 80.08 17.0962C79.8218 18.1987 79.3875 19.3012 78.7772 20.4037C78.1668 21.4827 77.4039 22.4327 76.4884 23.2537C75.5729 24.0512 74.411 24.708 73.0025 25.224C71.5941 25.7166 70.0213 25.9629 68.2842 25.9629H59.3406V1.33328ZM68.8476 20.8611C70.8664 20.8611 72.3805 20.1456 73.3899 18.7148C74.3992 17.2604 74.9039 15.5716 74.9039 13.6481C74.9039 11.7246 74.411 10.0358 73.4251 8.58143C72.4626 7.12711 71.0659 6.39995 69.2349 6.39995H64.6927V20.8611H68.8476Z" fill="black"/>
<path d="M91.9465 26.3851C89.2939 26.3851 87.2047 25.5524 85.6789 23.887C84.153 22.2216 83.3901 19.9111 83.3901 16.9555C83.3901 14.0703 84.153 11.7833 85.6789 10.0944C87.2282 8.4055 89.3174 7.56106 91.9465 7.56106C94.3408 7.56106 96.2892 8.28822 97.7915 9.74254C99.2939 11.1969 100.045 13.308 100.045 16.0759C100.045 17.2253 99.9981 18.1049 99.9042 18.7148H88.3901C88.4371 19.8407 88.7892 20.6851 89.4465 21.2481C90.1037 21.7876 90.9371 22.0574 91.9465 22.0574C93.5897 22.0574 94.9394 21.424 95.9958 20.1574L98.9535 23.1129C97.146 25.2944 94.8103 26.3851 91.9465 26.3851ZM88.4253 14.8796H95.1507C94.8925 12.8858 93.754 11.8888 91.7352 11.8888C90.8197 11.8888 90.0685 12.1586 89.4817 12.6981C88.8948 13.2141 88.5427 13.9413 88.4253 14.8796Z" fill="black"/>
<path d="M114.459 25.9629V24.6259C113.379 25.7987 111.889 26.3851 109.987 26.3851C107.992 26.3851 106.361 25.8808 105.093 24.8722C103.849 23.8401 103.227 22.374 103.227 20.474C103.227 18.6209 103.954 17.2018 105.41 16.2166C106.865 15.208 108.567 14.7037 110.515 14.7037C112.206 14.7037 113.52 14.9148 114.459 15.337V14.3518C114.459 13.5308 114.201 12.9092 113.684 12.487C113.168 12.0413 112.452 11.8185 111.537 11.8185C109.588 11.8185 107.663 12.4518 105.762 13.7185L104.177 9.81291C106.384 8.31168 108.954 7.56106 111.889 7.56106C116.983 7.56106 119.53 9.90674 119.53 14.5981V25.9629H114.459ZM110.973 22.0925C112.241 22.0925 113.403 21.6703 114.459 20.8259V19.2074C113.52 18.9259 112.499 18.7851 111.396 18.7851C109.283 18.7851 108.227 19.3598 108.227 20.5092C108.227 21.5648 109.142 22.0925 110.973 22.0925Z" fill="black"/>
<path d="M124.644 25.9629V2.9518L129.749 0.559204V25.9629H124.644Z" fill="black"/>
<path d="M142.872 26.3851C140.22 26.3851 138.13 25.5524 136.605 23.887C135.079 22.2216 134.316 19.9111 134.316 16.9555C134.316 14.0703 135.079 11.7833 136.605 10.0944C138.154 8.4055 140.243 7.56106 142.872 7.56106C145.266 7.56106 147.215 8.28822 148.717 9.74254C150.22 11.1969 150.971 13.308 150.971 16.0759C150.971 17.2253 150.924 18.1049 150.83 18.7148H139.316C139.363 19.8407 139.715 20.6851 140.372 21.2481C141.029 21.7876 141.863 22.0574 142.872 22.0574C144.515 22.0574 145.865 21.424 146.921 20.1574L149.879 23.1129C148.072 25.2944 145.736 26.3851 142.872 26.3851ZM139.351 14.8796H146.076C145.818 12.8858 144.68 11.8888 142.661 11.8888C141.745 11.8888 140.994 12.1586 140.407 12.6981C139.82 13.2141 139.468 13.9413 139.351 14.8796Z" fill="black"/>
<path d="M155.209 25.9629V7.98328H160.314V9.6018C160.549 9.13266 160.972 8.67526 161.582 8.22958C162.192 7.7839 162.908 7.56106 163.73 7.56106C165.138 7.56106 166.324 8.06538 167.286 9.07402L166.617 13.7185C165.631 12.8975 164.563 12.487 163.413 12.487C161.347 12.487 160.314 13.7302 160.314 16.2166V25.9629H155.209Z" fill="black"/>
</svg>
