<svg width="26" height="14" viewBox="0 0 26 14" fill="none" xmlns="http://www.w3.org/2000/svg">
<path d="M5.86772 13.5528C5.18415 13.5528 4.5372 13.4675 3.92687 13.2967C3.32875 13.1137 2.76725 12.8332 2.24237 12.4551C1.71748 12.0647 1.29636 11.522 0.978987 10.8267C0.673822 10.1314 0.52124 9.3203 0.52124 8.39329V0.525879H3.30434V8.39329C3.30434 9.3081 3.50575 9.94847 3.90856 10.3144C4.32359 10.6803 4.97664 10.8633 5.86772 10.8633C6.73439 10.8633 7.37523 10.6803 7.79025 10.3144C8.21748 9.93627 8.4311 9.2959 8.4311 8.39329V0.525879H11.2142V8.39329C11.2142 9.3081 11.0616 10.1131 10.7565 10.8084C10.4513 11.4915 10.0363 12.0282 9.51138 12.4185C8.99871 12.8088 8.4372 13.0954 7.82687 13.2784C7.21655 13.4614 6.56349 13.5528 5.86772 13.5528Z" fill="#7572FF"/>
<path d="M22.2117 13.3333L19.0807 7.51506L16.6455 10.5522V13.3333H13.8624V0.525879H16.6455V6.58195L21.4427 0.525879H24.7934L20.9666 5.17314L25.4709 13.3333H22.2117Z" fill="#7572FF"/>
</svg>
